<svg width="24" height="29" viewBox="0 0 24 29" fill="none" xmlns="http://www.w3.org/2000/svg">
<path fill-rule="evenodd" clip-rule="evenodd" d="M15.9059 5.16099C16.8223 3.97808 17.5169 2.30615 17.2657 0.599525C15.768 0.703608 14.0174 1.66183 12.9959 2.91082C12.0648 4.04251 11.2995 5.72601 11.5984 7.35994C13.2357 7.41116 14.9255 6.42981 15.9059 5.16099ZM23.9991 21.2144C23.3439 22.6749 23.0286 23.3274 22.1845 24.621C21.007 26.4268 19.3467 28.6753 17.2874 28.6918C15.4596 28.7116 14.9883 27.494 12.5069 27.5089C10.0255 27.5221 9.50822 28.715 7.67715 28.6968C5.61946 28.6786 4.04621 26.6498 2.86875 24.8441C-0.425539 19.7985 -0.772047 13.8757 1.25937 10.7252C2.70452 8.48823 4.98392 7.17976 7.12537 7.17976C9.30459 7.17976 10.6758 8.38249 12.4806 8.38249C14.2312 8.38249 15.297 7.17646 17.8178 7.17646C19.7261 7.17646 21.7477 8.22224 23.1862 10.0263C18.4698 12.6268 19.2334 19.402 23.9991 21.2144Z" fill="#0B0B0A"/>
</svg>
